# Blender 4.1.1
# www.blender.org
mtllib key.mtl
o Cube
v -0.097080 -0.291997 0.291997
v -0.097080 0.095423 0.291997
v -0.097080 -0.291997 -0.291997
v -0.097080 0.095423 -0.291997
v 0.097080 -0.291997 0.291997
v 0.097080 0.095423 0.291997
v 0.097080 -0.291997 -0.291997
v 0.097080 0.095423 -0.291997
v -0.097080 -0.291997 -0.291997
v -0.097080 -0.291997 0.291997
v -0.097080 0.095423 0.291997
v -0.097080 0.095423 -0.291997
v 0.097080 -0.291997 -0.291997
v 0.097080 0.095423 -0.291997
v 0.097080 -0.291997 0.291997
v 0.097080 0.095423 0.291997
v -0.097080 -0.291997 -0.126400
v -0.097080 0.095423 -0.126400
v 0.097080 -0.291997 -0.126400
v 0.097080 0.095423 -0.126400
v -0.097080 -0.291997 0.109266
v 0.097080 0.095423 0.109266
v -0.097080 0.095423 0.109266
v 0.097080 -0.291997 0.109266
v -0.097080 -0.156969 0.291997
v -0.097080 -0.156969 -0.291997
v 0.097080 -0.156969 -0.291997
v 0.097080 -0.156969 0.291997
v 0.097080 -0.156969 -0.126400
v -0.097080 -0.156969 -0.126400
v -0.097080 -0.156969 0.109266
v 0.097080 -0.156969 0.109266
v -0.097080 0.095423 -0.008567
v 0.097080 -0.291997 -0.008567
v -0.097080 -0.291997 -0.008567
v 0.097080 0.095423 -0.008567
v 0.097080 -0.156969 -0.008567
v -0.097080 -0.156969 -0.008567
v -0.097080 -0.013996 0.291997
v -0.097080 -0.013996 -0.291997
v 0.097080 -0.013996 -0.291997
v 0.097080 -0.013996 0.291997
v 0.097080 -0.013996 -0.126400
v -0.097080 -0.013996 -0.126400
v -0.097080 -0.013996 0.109266
v 0.097080 -0.013996 0.109266
v 0.097080 -0.013996 -0.008567
v -0.097080 -0.013996 -0.008567
v -0.097080 0.897831 -0.008567
v -0.097080 0.897831 -0.126400
v 0.097080 0.897831 -0.126400
v 0.097080 0.897831 -0.008567
v 0.097080 0.897831 0.109266
v -0.097080 0.897831 0.109266
v -0.097080 0.897831 -0.008567
v -0.097080 0.897831 -0.126400
v 0.097080 0.897831 -0.126400
v 0.097080 0.897831 -0.008567
v 0.097080 0.897831 0.109266
v -0.097080 0.897831 0.109266
v -0.097080 1.129089 -0.008567
v -0.097080 1.129089 -0.126400
v 0.097080 1.129089 -0.126400
v 0.097080 1.129089 -0.008567
v 0.097080 1.129089 0.109266
v -0.097080 1.129089 0.109266
v 0.097080 1.050681 -0.126400
v 0.097080 1.050681 -0.008567
v 0.097080 1.050681 0.109266
v -0.097080 1.050681 0.109266
v -0.097080 1.050681 -0.126400
v -0.097080 1.050681 -0.008567
v -0.097080 0.897831 -0.424181
v 0.097080 0.897831 -0.424181
v 0.097080 1.050681 -0.374683
v -0.097080 1.050681 -0.374683
v -0.116033 0.845939 0.361437
v 0.078128 0.845939 0.361437
v -0.116033 1.041337 0.361437
v 0.078128 1.041337 0.361437
v -0.097080 0.897831 -0.246851
v 0.097080 0.897831 -0.246851
v -0.097080 1.050681 -0.246851
v 0.097080 1.050681 -0.246851
v -0.097080 0.831838 -0.424181
v 0.097080 0.831838 -0.424181
v -0.097080 0.831838 -0.246851
v 0.097080 0.831838 -0.246851
v 0.097080 0.977441 -0.008567
v -0.097080 0.977441 0.109266
v -0.097080 0.977441 -0.008567
v 0.097080 0.977441 -0.126400
v 0.097080 0.977441 0.109266
v -0.097080 0.977441 -0.126400
v 0.097080 0.977441 -0.424181
v -0.097080 0.977441 -0.424181
v -0.116033 0.968097 0.361437
v 0.078128 0.968097 0.361437
v 0.097080 0.977441 -0.246851
v -0.097080 0.977441 -0.246851
v 0.088290 0.850949 0.195826
v -0.105870 0.850949 0.195826
v -0.105870 1.046347 0.195826
v 0.088290 1.046347 0.195826
v 0.088290 0.973107 0.195826
v -0.105870 0.973107 0.195826
v -0.097080 0.715034 -0.126400
v 0.097080 0.715034 -0.126400
v 0.097080 0.715034 -0.008567
v 0.097080 0.715034 0.109266
v -0.097080 0.715034 0.109266
v -0.097080 0.715034 -0.008567
v 0.097080 0.595020 -0.126400
v 0.097080 0.595020 -0.008567
v -0.097080 0.595020 0.109266
v -0.097080 0.595020 -0.126400
v 0.097080 0.595020 0.109266
v -0.097080 0.595020 -0.008567
v 0.097080 0.595020 0.168256
v 0.097080 0.715034 0.168256
v -0.097080 0.715034 0.168256
v -0.097080 0.595020 0.168256
v -0.097080 0.595020 -0.162865
v -0.097080 0.715034 -0.162865
v 0.097080 0.715034 -0.162865
v 0.097080 0.595020 -0.162865
v 0.097080 0.445141 -0.126400
v 0.097080 0.445141 -0.008567
v -0.097080 0.445141 0.109266
v -0.097080 0.445141 -0.126400
v 0.097080 0.445141 0.109266
v -0.097080 0.445141 -0.008567
v 0.097080 0.333124 -0.126400
v 0.097080 0.333124 -0.008567
v -0.097080 0.333124 0.109266
v -0.097080 0.333124 -0.126400
v 0.097080 0.333124 0.109266
v -0.097080 0.333124 -0.008567
v 0.097080 0.333124 0.213695
v 0.097080 0.445141 0.213695
v -0.097080 0.445141 0.213695
v -0.097080 0.333124 0.213695
v 0.097080 0.361245 0.267734
v 0.097080 0.473262 0.267734
v -0.097080 0.473262 0.267734
v -0.097080 0.361245 0.267734
v -0.097080 0.333124 -0.249067
v -0.097080 0.445141 -0.249067
v 0.097080 0.445141 -0.249067
v 0.097080 0.333124 -0.249067
v -0.097080 0.355647 -0.294499
v -0.097080 0.467663 -0.294499
v 0.097080 0.467663 -0.294499
v 0.097080 0.355647 -0.294499
vn -0.0000 1.0000 -0.0000
vn -0.0000 -0.0000 1.0000
vn -0.0000 -0.0000 -1.0000
vn -0.0000 -1.0000 -0.0000
vn -1.0000 -0.0000 -0.0000
vn 1.0000 -0.0000 -0.0000
vn -0.0000 -0.9995 -0.0302
vn -0.0000 0.5599 -0.8285
vn -0.9981 -0.0000 -0.0612
vn 0.9981 -0.0000 0.0612
vn -0.0000 0.9995 0.0302
vn -0.9949 -0.0000 -0.1010
vn 0.9949 -0.0000 0.1010
vn -0.0000 0.9987 0.0500
vn -0.0000 -0.8793 -0.4763
vn -0.0000 -0.8871 0.4616
vn -0.0000 0.8871 -0.4616
vn -0.0000 -0.8959 -0.4442
vn -0.0000 0.8959 0.4442
vt 0.625000 0.671775
vt 0.625000 0.621333
vt 0.375000 0.250000
vt 0.375000 0.500000
vt 0.625000 0.500000
vt 0.625000 0.250000
vt 0.462133 0.570890
vt 0.554392 0.570890
vt 0.554392 0.179110
vt 0.462133 0.179110
vt 0.375000 0.750000
vt 0.375000 1.000000
vt 0.625000 1.000000
vt 0.625000 0.750000
vt 0.125000 0.500000
vt 0.125000 0.750000
vt 0.875000 0.750000
vt 0.875000 0.500000
vt 0.625000 0.179110
vt 0.554392 0.250000
vt 0.554392 0.500000
vt 0.554392 0.671775
vt 0.554392 0.750000
vt 0.554392 1.000000
vt 0.125000 0.671775
vt 0.375000 0.671775
vt 0.875000 0.671775
vt 0.875000 0.570890
vt 0.625000 0.570890
vt 0.375000 0.570890
vt 0.125000 0.570890
vt 0.554392 0.128667
vt 0.625000 0.128667
vt 0.554392 0.000000
vt 0.625000 0.000000
vt 0.625000 0.078225
vt 0.554392 0.078225
vt 0.125000 0.621333
vt 0.375000 0.621333
vt 0.554392 0.621333
vt 0.462133 0.621333
vt 0.462133 0.671775
vt 0.375000 0.000000
vt 0.462133 0.000000
vt 0.462133 0.078225
vt 0.375000 0.078225
vt 0.375000 0.128667
vt 0.462133 0.128667
vt 0.375000 0.179110
vt 0.462133 0.500000
vt 0.462133 0.750000
vt 0.462133 1.000000
vt 0.462133 0.250000
vt 0.875000 0.621333
vt 0.625000 0.671775
vt 0.625000 0.078225
vt 0.875000 0.671775
vt 0.875000 0.570890
vt 0.625000 0.671775
vt 0.875000 0.671775
vt 0.625000 0.078225
vt 0.875000 0.570890
s 0
f 53/1/1 52/2/1 58/2/1 59/1/1
f 3/3/2 7/4/2 8/5/2 4/6/2
f 29/7/2 43/8/2 44/9/2 30/10/2
f 5/11/3 1/12/3 2/13/3 6/14/3
f 3/15/1 1/16/1 5/11/1 7/4/1
f 8/5/4 6/14/4 2/17/4 4/18/4
f 44/9/5 18/19/5 12/6/5 40/20/5
f 40/20/3 12/6/3 14/5/3 41/21/3
f 46/22/6 22/1/6 16/14/6 42/23/6
f 42/23/2 16/14/2 11/13/2 39/24/2
f 21/25/4 24/26/4 15/11/4 10/16/4
f 22/1/1 23/27/1 11/17/1 16/14/1
f 14/5/1 12/18/1 18/28/1 20/29/1
f 9/15/4 13/4/4 19/30/4 17/31/4
f 41/21/6 14/5/6 20/29/6 43/8/6
f 48/32/5 33/33/5 18/19/5 44/9/5
f 39/34/5 11/35/5 23/36/5 45/37/5
f 109/2/6 108/29/6 51/29/6 52/2/6
f 35/38/4 34/39/4 24/26/4 21/25/4
f 47/40/6 36/2/6 22/1/6 46/22/6
f 34/39/6 37/41/6 32/42/6 24/26/6
f 10/43/5 25/44/5 31/45/5 21/46/5
f 35/47/5 38/48/5 30/10/5 17/49/5
f 13/4/6 27/50/6 29/7/6 19/30/6
f 15/11/2 28/51/2 25/52/2 10/12/2
f 24/26/6 32/42/6 28/51/6 15/11/6
f 9/3/3 26/53/3 27/50/3 13/4/3
f 17/49/5 30/10/5 26/53/5 9/3/5
f 21/46/5 31/45/5 38/48/5 35/47/5
f 19/30/6 29/7/6 37/41/6 34/39/6
f 43/8/6 20/29/6 36/2/6 47/40/6
f 17/31/4 19/30/4 34/39/4 35/38/4
f 108/29/3 107/28/3 50/28/3 51/29/3
f 45/37/5 23/36/5 33/33/5 48/32/5
f 31/45/3 45/37/3 46/22/3 32/42/3
f 49/33/1 54/36/1 60/36/1 55/33/1
f 45/37/4 48/32/4 44/9/4 43/8/4 47/40/4 46/22/4
f 25/44/5 39/34/5 45/37/5 31/45/5
f 37/41/1 29/7/1 30/10/1 38/48/1 31/45/1 32/42/1
f 27/50/6 41/21/6 43/8/6 29/7/6
f 28/51/2 42/23/2 39/24/2 25/52/2
f 32/42/6 46/22/6 42/23/6 28/51/6
f 26/53/3 40/20/3 41/21/3 27/50/3
f 30/10/5 44/9/5 40/20/5 26/53/5
f 111/27/2 110/1/2 53/1/2 54/27/2
f 110/1/6 109/2/6 52/2/6 53/1/6
f 107/19/5 112/33/5 49/33/5 50/19/5
f 112/33/5 111/36/5 54/36/5 49/33/5
f 70/27/2 69/1/2 65/1/2 66/27/2
f 68/2/6 67/29/6 63/29/6 64/2/6
f 50/19/1 49/33/1 55/33/1 56/19/1
f 52/2/1 51/29/1 57/29/1 58/2/1
f 54/27/1 53/1/1 59/1/1 60/27/1
f 51/29/1 50/28/1 56/28/1 57/29/1
f 64/2/1 61/54/1 66/27/1 65/1/1
f 63/29/1 62/28/1 61/54/1 64/2/1
f 67/29/3 71/28/3 62/28/3 63/29/3
f 72/33/5 70/36/5 66/36/5 61/33/5
f 69/1/6 68/2/6 64/2/6 65/1/6
f 71/19/5 72/33/5 61/33/5 62/19/5
f 94/19/5 91/33/5 72/33/5 71/19/5
f 93/55/6 89/2/6 68/2/6 69/1/6
f 91/33/5 90/56/5 70/36/5 72/33/5
f 73/28/3 74/29/3 86/29/3 85/28/3
f 89/2/6 92/29/6 67/29/6 68/2/6
f 102/57/7 101/1/7 78/1/7 77/27/7
f 95/29/8 96/58/8 76/28/8 75/29/8
f 100/19/5 83/19/5 76/19/5 96/19/5
f 99/29/6 82/29/6 74/29/6 95/29/6
f 83/28/1 84/29/1 75/29/1 76/28/1
f 97/27/2 98/1/2 80/1/2 79/27/2
f 106/36/9 102/36/9 77/36/9 97/36/9
f 105/59/10 104/1/10 80/1/10 98/1/10
f 104/1/11 103/60/11 79/27/11 80/1/11
f 71/28/1 67/29/1 84/29/1 83/28/1
f 92/29/6 57/29/6 82/29/6 99/29/6
f 94/19/5 71/19/5 83/19/5 100/19/5
f 57/29/4 56/28/4 81/28/4 82/29/4
f 88/29/4 87/28/4 85/28/4 86/29/4
f 82/29/2 81/28/2 87/28/2 88/29/2
f 74/29/6 82/29/6 88/29/6 86/29/6
f 81/19/5 73/19/5 85/19/5 87/19/5
f 56/19/5 94/19/5 100/19/5 81/19/5
f 67/29/6 92/29/6 99/29/6 84/29/6
f 101/1/10 105/59/10 98/1/10 78/1/10
f 103/61/9 106/36/9 97/36/9 79/36/9
f 77/27/2 78/1/2 98/1/2 97/27/2
f 84/29/6 99/29/6 95/29/6 75/29/6
f 81/19/5 100/19/5 96/19/5 73/19/5
f 74/29/3 73/28/3 96/58/3 95/29/3
f 58/2/6 57/29/6 92/29/6 89/2/6
f 55/33/5 60/36/5 90/56/5 91/33/5
f 59/1/6 58/2/6 89/2/6 93/55/6
f 56/19/5 55/33/5 91/33/5 94/19/5
f 70/36/12 90/56/12 106/36/12 103/61/12
f 59/1/13 93/55/13 105/59/13 101/1/13
f 69/1/14 70/27/14 103/60/14 104/1/14
f 93/55/13 69/1/13 104/1/13 105/59/13
f 90/56/12 60/36/12 102/36/12 106/36/12
f 60/27/15 59/1/15 101/1/15 102/57/15
f 118/33/5 115/36/5 111/36/5 112/33/5
f 116/19/5 118/33/5 112/33/5 107/19/5
f 117/1/6 114/2/6 109/2/6 110/1/6
f 117/1/6 110/1/6 120/1/6 119/1/6
f 116/19/5 107/19/5 124/19/5 123/19/5
f 114/2/6 113/29/6 108/29/6 109/2/6
f 128/2/6 127/29/6 113/29/6 114/2/6
f 127/29/3 130/28/3 116/28/3 113/29/3
f 129/27/2 131/1/2 117/1/2 115/27/2
f 131/1/6 128/2/6 114/2/6 117/1/6
f 130/19/5 132/33/5 118/33/5 116/19/5
f 132/33/5 129/36/5 115/36/5 118/33/5
f 122/27/2 119/1/2 120/1/2 121/27/2
f 111/36/5 115/36/5 122/36/5 121/36/5
f 110/1/1 111/27/1 121/27/1 120/1/1
f 115/27/4 117/1/4 119/1/4 122/27/4
f 126/29/3 123/28/3 124/28/3 125/29/3
f 108/29/6 113/29/6 126/29/6 125/29/6
f 107/28/1 108/29/1 125/29/1 124/28/1
f 113/29/4 116/28/4 123/28/4 126/29/4
f 138/33/5 135/36/5 129/36/5 132/33/5
f 136/19/5 138/33/5 132/33/5 130/19/5
f 137/1/6 134/2/6 128/2/6 131/1/6
f 137/1/6 131/1/6 140/1/6 139/1/6
f 136/19/5 130/19/5 148/19/5 147/19/5
f 134/2/6 133/29/6 127/29/6 128/2/6
f 36/2/6 20/29/6 133/29/6 134/2/6
f 20/29/3 18/28/3 136/62/3 133/29/3
f 23/27/2 22/1/2 137/1/2 135/27/2
f 22/1/6 36/2/6 134/2/6 137/1/6
f 18/19/5 33/33/5 138/33/5 136/19/5
f 33/33/5 23/36/5 135/36/5 138/33/5
f 141/36/5 142/36/5 146/36/5 145/36/5
f 131/1/1 129/27/1 141/27/1 140/1/1
f 135/27/4 137/1/4 139/1/4 142/27/4
f 129/36/5 135/36/5 142/36/5 141/36/5
f 146/27/2 143/1/2 144/1/2 145/27/2
f 139/1/6 140/1/6 144/1/6 143/1/6
f 142/27/16 139/1/16 143/1/16 146/27/16
f 140/1/17 141/27/17 145/27/17 144/1/17
f 149/29/6 150/29/6 154/29/6 153/29/6
f 127/29/6 133/29/6 150/29/6 149/29/6
f 130/28/1 127/29/1 149/29/1 148/28/1
f 133/29/4 136/62/4 147/62/4 150/29/4
f 154/29/3 151/62/3 152/28/3 153/29/3
f 147/19/5 148/19/5 152/19/5 151/19/5
f 150/29/18 147/62/18 151/62/18 154/29/18
f 148/28/19 149/29/19 153/29/19 152/28/19
